<svg viewBox="0 0 330 200" xmlns="http://www.w3.org/2000/svg"><g><g><g><g><g><line x1="51.5625" y1="176.921875" x2="46.5625" y2="176.921875" style="visibility: inherit;" fill="rgb(0, 0, 0)" stroke="rgb(204, 204, 204)" stroke-width="1px"></line><line x1="51.5625" y1="154.80664062499997" x2="46.5625" y2="154.80664062499997" style="visibility: inherit;" fill="rgb(0, 0, 0)" stroke="rgb(204, 204, 204)" stroke-width="1px"></line><line x1="51.5625" y1="132.69140625" x2="46.5625" y2="132.69140625" style="visibility: inherit;" fill="rgb(0, 0, 0)" stroke="rgb(204, 204, 204)" stroke-width="1px"></line><line x1="51.5625" y1="110.576171875" x2="46.5625" y2="110.576171875" style="visibility: inherit;" fill="rgb(0, 0, 0)" stroke="rgb(204, 204, 204)" stroke-width="1px"></line><line x1="51.5625" y1="88.46093749999999" x2="46.5625" y2="88.46093749999999" style="visibility: inherit;" fill="rgb(0, 0, 0)" stroke="rgb(204, 204, 204)" stroke-width="1px"></line><line x1="51.5625" y1="66.345703125" x2="46.5625" y2="66.345703125" style="visibility: inherit;" fill="rgb(0, 0, 0)" stroke="rgb(204, 204, 204)" stroke-width="1px"></line><line x1="51.5625" y1="44.23046874999998" x2="46.5625" y2="44.23046874999998" style="visibility: inherit;" fill="rgb(0, 0, 0)" stroke="rgb(204, 204, 204)" stroke-width="1px"></line><line x1="51.5625" y1="22.11523437500002" x2="46.5625" y2="22.11523437500002" style="visibility: inherit;" fill="rgb(0, 0, 0)" stroke="rgb(204, 204, 204)" stroke-width="1px"></line><line x1="51.5625" y1="0" x2="46.5625" y2="0" style="visibility: inherit;" fill="rgb(0, 0, 0)" stroke="rgb(204, 204, 204)" stroke-width="1px"></line></g><g transform="translate(41.5625, 0)"><text x="0" y="176.921875" dx="0em" dy="0.3em" style="text-anchor: end; visibility: hidden; font-family: Roboto, sans-serif; font-size: 12px; font-weight: 200;" fill="rgb(33, 33, 33)" stroke="none" stroke-width="1px">0.35</text><text x="0" y="154.80664062499997" dx="0em" dy="0.3em" style="text-anchor: end; visibility: inherit; font-family: Roboto, sans-serif; font-size: 12px; font-weight: 200;" fill="rgb(33, 33, 33)" stroke="none" stroke-width="1px">0.4</text><text x="0" y="132.69140625" dx="0em" dy="0.3em" style="text-anchor: end; visibility: hidden; font-family: Roboto, sans-serif; font-size: 12px; font-weight: 200;" fill="rgb(33, 33, 33)" stroke="none" stroke-width="1px">0.45</text><text x="0" y="110.576171875" dx="0em" dy="0.3em" style="text-anchor: end; visibility: inherit; font-family: Roboto, sans-serif; font-size: 12px; font-weight: 200;" fill="rgb(33, 33, 33)" stroke="none" stroke-width="1px">0.5</text><text x="0" y="88.46093749999999" dx="0em" dy="0.3em" style="text-anchor: end; visibility: hidden; font-family: Roboto, sans-serif; font-size: 12px; font-weight: 200;" fill="rgb(33, 33, 33)" stroke="none" stroke-width="1px">0.55</text><text x="0" y="66.345703125" dx="0em" dy="0.3em" style="text-anchor: end; visibility: inherit; font-family: Roboto, sans-serif; font-size: 12px; font-weight: 200;" fill="rgb(33, 33, 33)" stroke="none" stroke-width="1px">0.6</text><text x="0" y="44.23046874999998" dx="0em" dy="0.3em" style="text-anchor: end; visibility: hidden; font-family: Roboto, sans-serif; font-size: 12px; font-weight: 200;" fill="rgb(33, 33, 33)" stroke="none" stroke-width="1px">0.65</text><text x="0" y="22.11523437500002" dx="0em" dy="0.3em" style="text-anchor: end; visibility: inherit; font-family: Roboto, sans-serif; font-size: 12px; font-weight: 200;" fill="rgb(33, 33, 33)" stroke="none" stroke-width="1px">0.7</text><text x="0" y="0" dx="0em" dy="0.3em" style="text-anchor: end; visibility: hidden; font-family: Roboto, sans-serif; font-size: 12px; font-weight: 200;" fill="rgb(33, 33, 33)" stroke="none" stroke-width="1px">0.75</text></g><line x1="51.5625" y1="0" x2="51.5625" y2="176.921875" fill="rgb(0, 0, 0)" stroke="rgb(204, 204, 204)" stroke-width="1px"></line></g></g><g transform="translate(51, 0)" clip-path="url(#clip_0)"><clipPath id="clip_0"><rect width="278" height="176"></rect></clipPath><g><g><g><line x1="0" y1="0" x2="0" y2="176.921875" fill="rgb(0, 0, 0)" stroke="rgb(66, 66, 66)" stroke-width="1px" opacity="0.25"></line><line x1="21.418269230769234" y1="0" x2="21.418269230769234" y2="176.921875" fill="rgb(0, 0, 0)" stroke="rgb(66, 66, 66)" stroke-width="1px" opacity="0.25"></line><line x1="42.83653846153847" y1="0" x2="42.83653846153847" y2="176.921875" fill="rgb(0, 0, 0)" stroke="rgb(66, 66, 66)" stroke-width="1px" opacity="0.25"></line><line x1="64.2548076923077" y1="0" x2="64.2548076923077" y2="176.921875" fill="rgb(0, 0, 0)" stroke="rgb(66, 66, 66)" stroke-width="1px" opacity="0.25"></line><line x1="85.67307692307693" y1="0" x2="85.67307692307693" y2="176.921875" fill="rgb(0, 0, 0)" stroke="rgb(66, 66, 66)" stroke-width="1px" opacity="0.25"></line><line x1="107.09134615384616" y1="0" x2="107.09134615384616" y2="176.921875" fill="rgb(0, 0, 0)" stroke="rgb(66, 66, 66)" stroke-width="1px" opacity="0.25"></line><line x1="128.5096153846154" y1="0" x2="128.5096153846154" y2="176.921875" fill="rgb(0, 0, 0)" stroke="rgb(66, 66, 66)" stroke-width="1px" opacity="0.25"></line><line x1="149.9278846153846" y1="0" x2="149.9278846153846" y2="176.921875" fill="rgb(0, 0, 0)" stroke="rgb(66, 66, 66)" stroke-width="1px" opacity="0.25"></line><line x1="171.34615384615387" y1="0" x2="171.34615384615387" y2="176.921875" fill="rgb(0, 0, 0)" stroke="rgb(66, 66, 66)" stroke-width="1px" opacity="0.25"></line><line x1="192.76442307692307" y1="0" x2="192.76442307692307" y2="176.921875" fill="rgb(0, 0, 0)" stroke="rgb(66, 66, 66)" stroke-width="1px" opacity="0.25"></line><line x1="214.18269230769232" y1="0" x2="214.18269230769232" y2="176.921875" fill="rgb(0, 0, 0)" stroke="rgb(66, 66, 66)" stroke-width="1px" opacity="0.25"></line><line x1="235.60096153846155" y1="0" x2="235.60096153846155" y2="176.921875" fill="rgb(0, 0, 0)" stroke="rgb(66, 66, 66)" stroke-width="1px" opacity="0.25"></line><line x1="257.0192307692308" y1="0" x2="257.0192307692308" y2="176.921875" fill="rgb(0, 0, 0)" stroke="rgb(66, 66, 66)" stroke-width="1px" opacity="0.25"></line><line x1="278.4375" y1="0" x2="278.4375" y2="176.921875" fill="rgb(0, 0, 0)" stroke="rgb(66, 66, 66)" stroke-width="1px" opacity="0.25"></line></g><g><line x1="0" y1="176.921875" x2="278.4375" y2="176.921875" fill="rgb(0, 0, 0)" stroke="rgb(66, 66, 66)" stroke-width="1px" opacity="0.25"></line><line x1="0" y1="154.80664062499997" x2="278.4375" y2="154.80664062499997" fill="rgb(0, 0, 0)" stroke="rgb(66, 66, 66)" stroke-width="1px" opacity="0.25"></line><line x1="0" y1="132.69140625" x2="278.4375" y2="132.69140625" fill="rgb(0, 0, 0)" stroke="rgb(66, 66, 66)" stroke-width="1px" opacity="0.25"></line><line x1="0" y1="110.576171875" x2="278.4375" y2="110.576171875" fill="rgb(0, 0, 0)" stroke="rgb(66, 66, 66)" stroke-width="1px" opacity="0.25"></line><line x1="0" y1="88.46093749999999" x2="278.4375" y2="88.46093749999999" fill="rgb(0, 0, 0)" stroke="rgb(66, 66, 66)" stroke-width="1px" opacity="0.25"></line><line x1="0" y1="66.345703125" x2="278.4375" y2="66.345703125" fill="rgb(0, 0, 0)" stroke="rgb(66, 66, 66)" stroke-width="1px" opacity="0.25"></line><line x1="0" y1="44.23046874999998" x2="278.4375" y2="44.23046874999998" fill="rgb(0, 0, 0)" stroke="rgb(66, 66, 66)" stroke-width="1px" opacity="0.25"></line><line x1="0" y1="22.11523437500002" x2="278.4375" y2="22.11523437500002" fill="rgb(0, 0, 0)" stroke="rgb(66, 66, 66)" stroke-width="1px" opacity="0.25"></line><line x1="0" y1="0" x2="278.4375" y2="0" fill="rgb(0, 0, 0)" stroke="rgb(66, 66, 66)" stroke-width="1px" opacity="0.25"></line></g></g></g><g><g><line x1="0" y1="331.728515625" x2="278.4375" y2="331.728515625" fill="rgb(0, 0, 0)" stroke="rgb(153, 153, 153)" stroke-width="1.5px"></line></g></g><g><g><line x1="21.418269230769234" y1="0" x2="21.418269230769234" y2="176.921875" fill="rgb(0, 0, 0)" stroke="rgb(153, 153, 153)" stroke-width="1.5px"></line></g></g><g><g><g><g><g><path stroke="rgb(255, 112, 67)" stroke-width="2px" d="M26.77283653846154,177.5057663943753L27.30829326923077,174.04556200199428L27.84375,172.31115351081024L28.37920673076923,171.54338762573371L28.914663461538463,167.61821394307688L29.450120192307693,167.03529383047345L29.985576923076923,166.85324283565538L30.521033653846153,163.98986322565327L31.056490384615387,163.4176696129345L31.591947115384617,162.51193719431458L32.12740384615385,161.49350051790577L32.66286057692308,156.84928715422487L33.19831730769231,155.79316198645057L33.73377403846154,156.26733685009995L34.269230769230774,155.26506177337677L34.8046875,152.51364416293487L35.340144230769226,149.7029261654489L35.87560096153846,149.0524645580699L36.41105769230769,148.78946017748564L36.94651442307692,148.13740819336414L37.48197115384615,143.38714324333648L38.01742788461538,144.59456956329268L38.55288461538462,140.44815135875294L39.08834134615385,141.4819733757372L39.62379807692307,144.5576301324537L40.15925480769231,144.91577016182237L40.69471153846154,144.72167859090064L41.23016826923077,144.2618128489777L41.765625,143.43232679343436L42.301081730769226,144.3628833117453L42.83653846153847,141.68940594811681L43.37199519230769,141.11447368060544L43.90745192307692,142.52672912838395L44.44290865384615,143.3105071957813L44.97836538461539,144.55855561584394L45.51382211538461,142.55117196455322L46.04927884615385,142.33506587389044L46.58473557692307,141.90974269961893L47.120192307692314,140.13990076617293L47.65564903846154,135.9803338757161L48.19110576923077,135.65864643408545L48.7265625,135.38317778489989L49.26201923076923,132.01343120483827L49.79747596153846,128.90074158110758L50.33293269230769,127.62947784245681L50.86838942307692,128.0926151692208L51.40384615384615,131.17361249191936L51.93930288461539,129.0706578055888L52.47475961538461,131.10629934072225L53.01021634615385,131.3068785715464L53.54567307692308,131.44910873207468L54.08112980769231,127.59396431664048L54.61658653846154,127.67472285147578L55.15204326923077,126.59106824756769L55.6875,126.6811080767233L56.22295673076923,126.12195904790737L56.75841346153846,123.99637958981792L57.293870192307686,122.01640142688593L57.82932692307693,122.88307956922593L58.36478365384615,125.54780720251493L58.90024038461539,125.96207770992685L59.43569711538461,128.09619621978877L59.97115384615385,127.1130097873654L60.50661057692308,124.69241081102572L61.04206730769231,126.11005929943111L61.57752403846153,121.86331325668557L62.112980769230774,121.45932926430532L62.6484375,118.62617856073607L63.18389423076923,119.29456764591731L63.71935096153846,120.69323589940154L64.2548076923077,122.70103238055901L64.79026442307692,122.14165997534349L65.32572115384616,120.25113202275121L65.86117788461539,122.53419206682214L66.39663461538461,122.68373772867453L66.93209134615385,123.94762037896331L67.46754807692308,122.25762820566754L68.0030048076923,123.67577098280081L68.53846153846155,122.52258669448285L69.07391826923077,119.72473047910005L69.609375,116.22754142813642L70.14483173076923,117.5785374487809L70.68028846153845,114.58877177993755L71.2157451923077,117.26561816999737L71.75120192307692,116.85866055562234L72.28665865384616,114.83181986006987L72.82211538461539,114.5114015846359L73.35757211538461,115.36775889206703L73.89302884615384,113.35365457143587L74.42848557692308,114.15325099552561L74.9639423076923,116.13391346425038L75.49939903846153,114.2703123208723L76.03485576923076,113.65615078006604L76.5703125,113.13359067751405L77.10576923076924,113.08872359091448L77.64122596153847,111.05888938308625L78.1766826923077,108.90056318345873L78.71213942307692,104.97958068976556L79.24759615384615,109.10915868071216L79.78305288461537,108.1777697623051L80.31850961538461,106.10180477409368L80.85396634615385,104.14544274219023L81.38942307692308,103.05847073289108L81.9248798076923,103.87956366282754L82.46033653846153,102.68050681875414L82.99579326923077,99.85339726838117L83.53125,100.03377879328772L84.06670673076923,101.37335977910959L84.60216346153845,104.73056847758818L85.1376201923077,105.63848696651375L85.67307692307693,103.72421636612653L86.20853365384616,103.73518677774344L86.74399038461539,107.88468126632085L87.27944711538461,110.19328675049105L87.81490384615384,108.60487308987271L88.35036057692307,107.75119729291056L88.8858173076923,108.89754360605961L89.42127403846155,104.24787936484029L89.95673076923077,101.1048817303902L90.4921875,98.85725077470897L91.02764423076923,94.36546805477666L91.56310096153847,92.49964247060763L92.0985576923077,89.7368426800635L92.63401442307692,89.43180580329762L93.16947115384615,92.59090333903505L93.70492788461539,93.89918785661958L94.24038461538463,92.1555424732216L94.77584134615385,92.08473128363536L95.31129807692308,92.21894240800384L95.8467548076923,94.23567056607524L96.38221153846153,94.50932393513582L96.91766826923076,93.04054712816664L97.453125,94.17060234889722L97.98858173076924,92.43243739993076L98.52403846153847,92.98722487986271L99.0594951923077,91.60032429614532L99.59495192307692,89.76405083478764L100.13040865384616,87.48229476376474L100.66586538461539,88.1070149341382L101.20132211538461,89.64629538461354L101.73677884615384,87.85183361275575L102.27223557692308,86.07352919665603L102.8076923076923,85.30792883639919L103.34314903846155,87.87124774651357L103.87860576923077,89.80871064958589L104.4140625,92.10034933436717L104.94951923076923,91.25096236298988L105.48497596153845,89.66619843383462L106.0204326923077,87.50557872255284L106.55588942307692,86.32674673443303L107.09134615384616,86.07182821607624L107.62680288461539,84.52557701091386L108.16225961538461,83.26119212888449L108.69771634615384,84.37782416116904L109.23317307692308,80.30005905816341L109.7686298076923,79.12038370959985L110.30408653846153,80.69355514501277L110.83954326923076,79.66878268612652L111.375,77.94247428351122L111.91045673076924,80.39512433982384L112.44591346153847,77.84677239290345L112.9813701923077,78.79269131561149L113.51682692307692,79.73086736371107L114.05228365384615,83.25949313611318L114.58774038461537,83.81124957373926L115.12319711538461,81.95330092533176L115.65865384615385,80.32220507688154L116.19411057692308,78.66923185036805L116.7295673076923,79.42325648698605L117.26502403846153,78.27177024611964L117.80048076923077,76.38740842666859L118.3359375,73.67421503019169L118.87139423076923,73.54872822615458L119.40685096153845,71.17860332076926L119.9423076923077,72.11056619745142L120.47776442307693,72.49669300960865L121.01322115384616,69.75634325627271L121.54867788461539,66.7989789619673L122.08413461538461,67.69933102587184L122.61959134615384,71.19069706939864L123.15504807692307,71.19205606767115L123.6905048076923,75.06268326163159L124.22596153846155,74.58673957402969L124.76141826923077,75.56978308987607L125.296875,76.10895995366255L125.83233173076923,72.8685463443789L126.36778846153847,72.56609478994508L126.9032451923077,70.27229702599435L127.43870192307692,70.4495735755785L127.97415865384615,71.7100286523936L128.5096153846154,72.58034087955174L129.0450721153846,73.09170230739345L129.58052884615384,72.2613409152606L130.11598557692307,68.84033598203352L130.65144230769232,67.70595602283387L131.18689903846155,67.11822537189015L131.72235576923077,65.77901429175036L132.2578125,67.62155379236535L132.79326923076923,67.41386416839279L133.32872596153848,65.76728477005258L133.8641826923077,66.44061902952825L134.39963942307693,68.70173999272029L134.93509615384616,68.24656388040614L135.4705528846154,68.94520876916371L136.0060096153846,66.15277955267607L136.54146634615384,70.66961373585077L137.0769230769231,68.30040542444219L137.61237980769232,67.22461641473217L138.14783653846155,67.50013103140407L138.68329326923077,69.5716252393024L139.21875,66.1264717434604L139.75420673076923,63.99550887824862L140.28966346153845,63.24250262048275L140.82512019230768,64.01341267802289L141.3605769230769,63.79586899751542L141.89603365384613,63.26164680101939L142.4314903846154,65.44367987818242L142.9669471153846,60.479417243083816L143.50240384615384,62.80695109471053L144.0378605769231,61.94173147437777L144.57331730769232,60.35420894501856L145.10877403846155,63.54113598451077L145.64423076923077,60.79247958618814L146.1796875,60.49674686296618L146.71514423076923,61.60561529219693L147.25060096153845,60.74743519339307L147.78605769230768,61.43407031373464L148.32151442307693,58.11438925746869L148.85697115384616,55.356244959064725L149.3924278846154,54.69430076426068L149.9278846153846,56.87757811191793L150.46334134615384,56.59226144775081L150.99879807692307,55.33497788682206L151.5342548076923,56.84807922495171L152.06971153846152,58.43771388826962L152.60516826923077,60.8232004483947L153.140625,61.80027879394195L153.67608173076925,63.351487454028955L154.21153846153848,61.83346883732297L154.7469951923077,56.95942964150774L155.28245192307693,56.59542762526289L155.81790865384616,57.48483746639419L156.3533653846154,56.89970754406468L156.8888221153846,56.186870402262585L157.42427884615384,55.588771713170544L157.95973557692307,56.99353398109146L158.4951923076923,57.26387569562784L159.03064903846152,56.24202416047155L159.56610576923075,56.98348336473711L160.1015625,57.310727964549905L160.63701923076923,57.73992773872452L161.17247596153848,56.68094796675091L161.7079326923077,55.35090257095868L162.24338942307693,53.00641713310086L162.77884615384616,50.37906014677367L163.3143028846154,54.36922055249202L163.8497596153846,52.13776251096046L164.38521634615384,51.812885657859404L164.92067307692307,51.769634210372146L165.45612980769232,50.89457228483515L165.99158653846155,48.618379725591424L166.52704326923077,47.537509517580524L167.0625,50.751892535384506L167.59795673076923,52.00075812197794L168.13341346153845,51.468295636533306L168.66887019230768,55.46024745393267L169.2043269230769,58.87264000352271L169.73978365384616,57.83624388923636L170.2752403846154,55.63599295384979L170.8106971153846,58.93832158038194L171.34615384615387,57.98430771887249L171.8816105769231,55.15907902193431L172.41706730769232,55.93328290622077L172.95252403846155,52.50623309169013L173.48798076923077,51.45671504750925L174.0234375,53.82500943654847L174.55889423076923,50.670439880977824L175.09435096153845,47.18107147328155L175.62980769230768,47.46711218853381L176.1652644230769,47.39117544342033L176.70072115384613,43.948542791590555L177.2361778846154,42.80560835711105L177.7716346153846,43.921492625612814L178.30709134615384,44.65163519206865L178.8425480769231,43.980266150689246L179.37800480769232,45.79273021573889L179.91346153846155,46.84076993909195L180.44891826923077,48.320271355324216L180.984375,45.16828207986994L181.51983173076923,43.39903835148308L182.05528846153845,42.6249218512413L182.59074519230768,40.96533242786698L183.12620192307693,39.05591363055322L183.66165865384616,41.18474340037287L184.1971153846154,39.92120473386232L184.7325721153846,41.79712910146856L185.26802884615384,41.302478549562L185.80348557692307,43.03043201266138L186.3389423076923,40.87825470660006L186.87439903846152,39.732967753139924L187.40985576923077,38.849219234335095L187.9453125,40.36546628942336L188.48076923076925,41.66782867397907L189.01622596153848,41.139055010829914L189.5516826923077,40.92064731834286L190.08713942307693,38.3860734044496L190.62259615384616,39.05882668816765L191.1580528846154,39.22228869275494L191.6935096153846,35.699677359885605L192.22896634615384,36.42886550682931L192.76442307692307,37.747586366370996L193.2998798076923,38.67101793438816L193.83533653846152,40.68480690153647L194.37079326923075,40.540789001820535L194.90625,41.91587308061411L195.44170673076923,41.36281069989263L195.97716346153848,40.07549368165806L196.5126201923077,39.54729170565331L197.04807692307693,38.98668866507075L197.58353365384616,38.86752613012299L198.1189903846154,41.70836133858619L198.6544471153846,40.868606804881L199.18990384615384,39.04569978969855L199.72536057692307,40.508082234211784L200.26081730769232,39.25578245786747L200.79627403846155,35.31530293509951L201.33173076923077,35.06949397936201L201.8671875,36.21037443612117L202.40264423076923,33.031366650413446L202.93810096153845,34.33450478578888L203.47355769230768,35.85209700285482L204.0090144230769,38.45293739427225L204.54447115384616,39.00304676198901L205.0799278846154,35.10204579780802L205.6153846153846,36.11302445591973L206.15084134615387,36.407499826416036L206.6862980769231,36.99615516683352L207.22175480769232,38.60169927058935L207.75721153846155,38.443966347693696L208.29266826923077,39.57518854433685L208.828125,40.35728795025549L209.36358173076923,38.17513494145541L209.89903846153845,37.763230023041416L210.43449519230768,37.15022678782482L210.9699519230769,35.53671043757271L211.50540865384613,34.611240223777784L212.0408653846154,33.470274303906955L212.5763221153846,32.07401940563311L213.11177884615384,32.68888233106516L213.6472355769231,29.71741549614553L214.18269230769232,30.51762678469217L214.71814903846155,29.829558611216925L215.25360576923077,30.791259066122315L215.7890625,32.26129796441763L216.32451923076923,31.651068860042642L216.85997596153845,31.286511833807015L217.39543269230768,29.566563418139385L217.93088942307693,29.032845521887165L218.46634615384616,26.776605865040736L219.0018028846154,27.964381017331867L219.5372596153846,29.53012482370019L220.07271634615384,31.151427301748832L220.60817307692307,30.061997098674052L221.1436298076923,29.614389027945112L221.67908653846152,28.74621076325373L222.21454326923077,27.008001467225096L222.75,26.98013088633618L223.28545673076925,29.239458679615556L223.82091346153848,27.367624768431508L224.3563701923077,25.774659155746182L224.89182692307693,25.544460232617116L225.42728365384616,25.830235496188397L225.9627403846154,24.391468503239988L226.4981971153846,23.61360613850711L227.03365384615384,24.446093101613968L227.56911057692307,23.372285400679477L228.1045673076923,23.070543897841556L228.64002403846152,24.011915167887974L229.17548076923075,23.62661946784665L229.7109375,20.685436674063304L230.24639423076923,18.365763791211695L230.78185096153848,18.248335222254568L231.3173076923077,19.788635134786244L231.85276442307693,25.331942369155616L232.38822115384616,26.52944857863079L232.9236778846154,26.733731880975174L233.4591346153846,27.240347451301158L233.99459134615384,30.077353121605213L234.53004807692307,28.708673062185813L235.06550480769232,28.12488684248946L235.60096153846155,28.482905960765464L236.13641826923077,28.935853674310156L236.671875,27.59183625566259L237.20733173076923,27.304030815951872L237.74278846153845,26.25382406157761L238.27824519230768,28.275834396379206L238.8137019230769,26.33849688736562L239.34915865384616,26.80696675428719L239.8846153846154,25.55363112752323L240.4200721153846,27.16109547181856L240.95552884615387,26.0179897326791L241.4909855769231,23.39707335988053L242.02644230769232,23.910409527653297L242.56189903846155,20.852114667422956L243.09735576923077,21.589725071246445L243.6328125,21.198247863627046L244.16826923076923,23.14478135111537L244.70372596153845,20.90313256175788L245.23918269230768,20.845033860007952L245.7746394230769,22.685253747737395L246.31009615384613,23.15969377152493L246.8455528846154,21.919625555817603L247.3810096153846,22.47466306737393L247.91646634615384,24.74363254582201L248.4519230769231,25.064901243659325L248.98737980769232,25.312633129664178L249.52283653846155,28.237689955080263L250.05829326923077,29.01462891575272L250.59375,28.157459162139055L251.12920673076923,26.138386421759765L251.66466346153845,26.109835840550556L252.20012019230768,23.4350849865221L252.73557692307693,21.6110126173677L253.27103365384616,20.617946514116223L253.8064903846154,18.88603628927456L254.3419471153846,19.776774171547796L254.87740384615384,23.940881625770437L255.41286057692307,20.664554217719978L255.9483173076923,21.35711388738695L256.48377403846155,21.47504024832374L257.0192307692308,21.124740448595606L257.5546875,20.211900553264964L258.0901442307692,18.45189336483406L258.62560096153845,17.636743687008693L259.1610576923077,19.501918411973566L259.6965144230769,19.030164089368974L260.23197115384613,18.93655329456787L260.76742788461536,18.91063133982792L261.30288461538464,20.400494346165406L261.83834134615387,20.213461638771975L262.3737980769231,21.007504005565465L262.9092548076923,20.34988053189624L263.44471153846155,25.045820148096237L263.6053485576923,20.366726087970157" style="fill: none;" fill="none"></path></g></g></g></g><g opacity="0.2"><g><g><g><path stroke="rgb(255, 112, 67)" stroke-width="2px" d="M24.631009615384617,180.42847530334257L25.166466346153847,165.99810486426577L25.701923076923077,177.831099050818L26.237379807692307,169.15124824270606L26.77283653846154,164.20975587214343L27.30829326923077,159.41998494789004L27.84375,164.74154547322541L28.37920673076923,168.1043702631723L28.914663461538463,149.6598537149839L29.450120192307693,164.3216422002297L29.985576923076923,165.99357035709545L30.521033653846153,150.30864414642565L31.056490384615387,160.6570485944394L31.591947115384617,158.10684967087582L32.12740384615385,156.5071572677698L32.66286057692308,133.98478742106818L33.19831730769231,150.5696814879775L33.73377403846154,158.62152941641398L34.269230769230774,150.27310626464896L34.8046875,138.7735565355979L35.340144230769226,135.63573030056432L35.87560096153846,145.79102274263278L36.41105769230769,147.46872448711656L36.94651442307692,144.85879924963228L37.48197115384615,119.4766976381652L38.01742788461538,150.67754739546217L38.55288461538462,119.54313344089314L39.08834134615385,146.69742327183485L39.62379807692307,160.08178572403267L40.15925480769231,146.72423486365005L40.69471153846154,143.74124095775187L41.23016826923077,141.9381416356191L41.765625,139.2399385070894L42.301081730769226,149.06708553782664L42.83653846153847,128.17193149821833L43.37199519230769,138.20711222710088L43.90745192307692,149.66919954516925L44.44290865384615,147.2748611238785L44.97836538461539,150.8717271196656L45.51382211538461,132.3962335602846L46.04927884615385,141.2417652423028L46.58473557692307,139.7578873159364L47.120192307692314,131.18529605679214L47.65564903846154,114.93407053640112L48.19110576923077,134.03094975859858L48.7265625,133.9893087465316L49.26201923076923,114.96220029890537L49.79747596153846,113.1499792356044L50.33293269230769,121.19656766299158L50.86838942307692,130.43623238103464L51.40384615384615,146.76455770502798L51.93930288461539,118.42887057573535L52.47475961538461,141.40752520645037L53.01021634615385,132.32190191512927L53.54567307692308,132.168862298131L54.08112980769231,108.08498745318502L54.61658653846154,128.08340315474197L55.15204326923077,121.10719569027424L55.6875,127.13675887440331L56.22295673076923,123.29235360492021L56.75841346153846,113.23974665952846L57.293870192307686,111.99657988268882L57.82932692307693,127.26897139451467L58.36478365384615,139.03288025525399L58.90024038461539,128.05852927383967L59.43569711538461,138.89609368285164L59.97115384615385,122.13750426424667L60.50661057692308,112.44274111581035L61.04206730769231,133.2842060632538L61.57752403846153,100.37223893450573L62.112980769230774,119.41492815967649L62.6484375,104.28873495897278L63.18389423076923,122.67701834556647L63.71935096153846,127.77133942581713L64.2548076923077,132.86169281229377L64.79026442307692,119.31089812889695L65.32572115384616,110.68391914712265L65.86117788461539,134.0878551872447L66.39663461538461,123.44052917207591L66.93209134615385,130.34363089012913L67.46754807692308,113.7052454566583L68.0030048076923,130.85243159439415L68.53846153846155,116.68677619309165L69.07391826923077,105.56588417617604L69.609375,98.52964721852913L70.14483173076923,124.41539548686706L70.68028846153845,99.45874664699659L71.2157451923077,130.81208238960244L71.75120192307692,114.79920849320479L72.28665865384616,104.57477799849585L72.82211538461539,112.88989097694866L73.35757211538461,119.70144574064761L73.89302884615384,103.16106629790738L74.42848557692308,118.19969341973774L74.9639423076923,126.15726578049362L75.49939903846153,104.83936121920124L76.03485576923076,110.5481212027371L76.5703125,110.48911988269538L77.10576923076924,112.86166894249618L77.64122596153847,100.7866981625557L78.1766826923077,97.97812460223213L78.71213942307692,85.13703301781788L79.24759615384615,130.00732600223273L79.78305288461537,103.46437737345695L80.31850961538461,95.59616380371153L80.85396634615385,94.24506521085277L81.38942307692308,97.55773360608146L81.9248798076923,108.03479151334614L82.46033653846153,96.61255249520764L82.99579326923077,85.54650956066325L83.53125,100.9466186305508L84.06670673076923,108.15245142905042L84.60216346153845,121.72007915214635L85.1376201923077,110.23310477146879L85.67307692307693,94.036846968811L86.20853365384616,103.79070370923728L86.74399038461539,128.88363821664825L87.27944711538461,121.87622965197079L87.81490384615384,100.56653729407117L88.35036057692307,103.43108038185164L88.8858173076923,114.69875070499256L89.42127403846155,80.71776032913476L89.95673076923077,85.19940885482356L90.4921875,87.48287593945861L91.02764423076923,71.63432520115748L91.56310096153847,83.05743421195075L92.0985576923077,75.75540131656453L92.63401442307692,87.88813433609903L93.16947115384615,108.57785147381946L93.70492788461539,100.5199004150927L94.24038461538463,83.33164007868618L94.77584134615385,91.72638374846429L95.31129807692308,92.8981320373714L95.8467548076923,104.44153730524704L96.38221153846153,95.89417583309114L96.91766826923076,85.60764631722122L97.453125,99.88936664769426L97.98858173076924,83.6362693249248L98.52403846153847,95.79478576313704L99.0594951923077,84.58176679676399L99.59495192307692,80.471394227352L100.13040865384616,75.93522616196424L100.66586538461539,91.26847761450335L101.20132211538461,97.43598736124113L101.73677884615384,78.77076949458569L102.27223557692308,77.07423109095544L102.8076923076923,81.43352701328695L103.34314903846155,100.84319495828822L103.87860576923077,99.61344715906307L104.4140625,103.69742995128036L104.94951923076923,86.95254950784147L105.48497596153845,81.6463324893266L106.0204326923077,76.57153351698071L106.55588942307692,80.36114243092015L107.09134615384616,84.78178601711988L107.62680288461539,76.70060879085213L108.16225961538461,76.86263833194971L108.69771634615384,90.02865899121389L109.23317307692308,59.66409626416862L109.7686298076923,73.15051149111241L110.30408653846153,88.65475604543462L110.83954326923076,74.48281296994537L111.375,69.2063075187616L111.91045673076924,92.80702007934451L112.44591346153847,64.95056708576158L112.9813701923077,83.57961434870958L113.51682692307692,84.47860675863922L114.05228365384615,101.11647810554132L114.58774038461537,86.6034715459682L115.12319711538461,72.55095473490655L115.65865384615385,72.06787154078484L116.19411057692308,70.30418552225456L116.7295673076923,83.23907813290134L117.26502403846153,72.44455199688673L117.80048076923077,66.85139558278024L118.3359375,59.94381208438426L118.87139423076923,72.91368894511834L119.40685096153845,59.1843348601833L119.9423076923077,76.82686317944899L120.47776442307693,74.45072869537398L121.01322115384616,55.88851268636063L121.54867788461539,51.8329232907854L122.08413461538461,72.25565813714638L122.61959134615384,88.85912522906438L123.15504807692307,71.19893342256546L123.6905048076923,94.65040269773453L124.22596153846155,72.17817606404424L124.76141826923077,80.54457906400785L125.296875,78.837521658279L125.83233173076923,56.47008959436789L126.36778846153847,71.03550662053749L126.9032451923077,58.66429015994072L127.43870192307692,71.34670035680756L127.97415865384615,78.08869525324553L128.5096153846154,76.98464821092784L129.0450721153846,75.67950104828924L129.58052884615384,68.05920902173966L130.11598557692307,51.52797768358141L130.65144230769232,61.96530592627823L131.18689903846155,64.14395207772031L131.72235576923077,59.001794583164155L132.2578125,76.94592035608366L132.79326923076923,66.36282879859209L133.32872596153848,57.43459508754313L133.8641826923077,69.84809846384451L134.39963942307693,80.14438244281337L134.93509615384616,65.94309688778594L135.4705528846154,72.48077532742172L136.0060096153846,52.021395335905254L136.54146634615384,93.52753217797726L137.0769230769231,56.310775484889746L137.61237980769232,61.78047203226015L138.14783653846155,68.89440197031945L138.68329326923077,80.05464138230309L139.21875,48.69190708268434L139.75420673076923,53.21154528763145L140.28966346153845,59.43183458875865L140.82512019230768,67.91468478739262L141.3605769230769,62.69496612949297L141.89603365384613,60.55815871572122L142.4314903846154,76.48608969291672L142.9669471153846,35.35723966546357L143.50240384615384,74.58568301051855L144.0378605769231,57.563195819966495L144.57331730769232,52.320382811594754L145.10877403846155,79.66891827527434L145.64423076923077,46.882612358313054L146.1796875,59.00016005150974L146.71514423076923,67.21716158557683L147.25060096153845,56.404523784294724L147.78605769230768,64.90886016516015L148.32151442307693,41.31479118485004L148.85697115384616,41.39836320653558L149.3924278846154,51.344461960252374L149.9278846153846,67.92628468945622L150.46334134615384,55.148386207874864L150.99879807692307,48.97236107848585L151.5342548076923,64.50528902700171L152.06971153846152,66.48222869960591L152.60516826923077,72.89520819205791L153.140625,66.7448873911053L153.67608173076925,71.20154340052977L154.21153846153848,54.15137462550774L154.7469951923077,32.293837347533554L155.28245192307693,54.753356815781444L155.81790865384616,61.985790298786014L156.3533653846154,53.938595512881875L156.8888221153846,52.57948244223371L157.42427884615384,52.56202986231074L157.95973557692307,64.10248242784292L158.4951923076923,58.6319686146453L159.03064903846152,51.070836088620126L159.56610576923075,60.73571630753577L160.1015625,58.966783969663084L160.63701923076923,59.91193871712312L161.17247596153848,51.32186851464212L161.7079326923077,48.62006678013131L162.24338942307693,41.14189991727471L162.77884615384616,37.08304145839065L163.3143028846154,74.56185048446059L163.8497596153846,40.845232421997935L164.38521634615384,50.168811886105686L164.92067307692307,51.55075567308813L165.45612980769232,46.46622860105708L165.99158653846155,37.09946586517617L166.52704326923077,42.06765119219199L167.0625,67.01861871639267L167.59795673076923,58.32077487837523L168.13341346153845,48.77371275564656L168.66887019230768,75.66194301471114L169.2043269230769,76.14141442114487L169.73978365384616,52.59145143209025L170.2752403846154,44.501389735378325L170.8106971153846,75.6501058419235L171.34615384615387,53.15641938941553L171.8816105769231,40.861709555611014L172.41706730769232,59.851223775185645L172.95252403846155,35.16328403027728L173.48798076923077,46.1455176724121L174.0234375,65.81001437501982L174.55889423076923,34.706406069453806L175.09435096153845,29.522752561606467L175.62980769230768,48.914651565719396L176.1652644230769,47.00688949087635L176.70072115384613,26.526735129300505L177.2361778846154,37.02166743110865L177.7716346153846,49.568543317727745L178.30709134615384,48.34659908898175L178.8425480769231,40.58273191098124L179.37800480769232,54.96489684795961L179.91346153846155,52.144486114848405L180.44891826923077,55.807445188984275L180.984375,29.21730604954064L181.51983173076923,34.44559281691909L182.05528846153845,38.70742319850251L182.59074519230768,32.56680413382128L183.12620192307693,29.393097292631865L183.66165865384616,51.95791223552078L184.1971153846154,33.52693330030888L184.7325721153846,51.290443325415254L185.26802884615384,38.79924696870148L185.80348557692307,51.77492378046736L186.3389423076923,29.98693318804726L186.87439903846152,33.93712165532634L187.40985576923077,34.37691612401977L187.9453125,48.03859532577917L188.48076923076925,48.25857165036723L189.01622596153848,38.463139806408435L189.5516826923077,39.81537202605978L190.08713942307693,25.559593294747174L190.62259615384616,42.46336603304371L191.1580528846154,40.049505503848195L191.6935096153846,17.873129099607468L192.22896634615384,40.11899946257472L192.76442307692307,44.4211131404154L193.2998798076923,43.344141324050725L193.83533653846152,50.87579955346882L194.37079326923075,39.81197114568204L194.90625,48.87463190359995L195.44170673076923,38.56397986412048L195.97716346153848,33.56088937725872L196.5126201923077,36.87426958465949L197.04807692307693,36.14969752030447L197.58353365384616,38.264491483569145L198.1189903846154,56.08470921171829L198.6544471153846,36.6189399221912L199.18990384615384,29.82068550074473L199.72536057692307,47.908623695839196L200.26081730769232,32.91838662000373L200.79627403846155,15.374088380485773L201.33173076923077,33.82555168820545L201.8671875,41.98392099002376L202.40264423076923,16.943660583347082L202.93810096153845,40.92917353147641L203.47355769230768,43.532033374067396L204.0090144230769,51.614766041748226L204.54447115384616,41.78693356225267L205.0799278846154,15.360616676043719L205.6153846153846,41.229189180303365L206.15084134615387,37.89772367104888L206.6862980769231,39.97510795015842L207.22175480769232,46.72672549262643L207.75721153846155,37.64574216213077L208.29266826923077,45.29985844856128L208.828125,44.31518494384363L209.36358173076923,27.132118199951947L209.89903846153845,35.67874149652198L210.43449519230768,34.04805890051648L210.9699519230769,27.371339816600084L211.50540865384613,29.92780005093664L212.0408653846154,27.6962952548638L212.5763221153846,25.00812340527773L213.11177884615384,35.80046137794852L213.6472355769231,14.67999242246151L214.18269230769232,34.56718088127673L214.71814903846155,26.34751664241776L215.25360576923077,35.65804621670395L215.7890625,39.70058572245762L216.32451923076923,28.562939756084234L216.85997596153845,29.441632337402552L217.39543269230768,20.86258204188198L217.93088942307693,26.33190950145945L218.46634615384616,15.35866578342393L219.0018028846154,33.97524315165356L219.5372596153846,37.45373741956428L220.07271634615384,39.35620044823736L220.60817307692307,24.548820010386407L221.1436298076923,27.349220912437886L221.67908653846152,24.352702575270087L222.21454326923077,18.211608969140798L222.75,26.839088855776936L223.28545673076925,40.673026603180915L223.82091346153848,17.895010733045638L224.3563701923077,17.713287721853703L224.89182692307693,24.37951416708529L225.42728365384616,27.276431526988745L225.9627403846154,17.11043553892523L226.4981971153846,19.677151141222566L227.03365384615384,28.658981672488153L227.56911057692307,17.938167641405016L228.1045673076923,21.54354901984334L228.64002403846152,28.775824322365224L229.17548076923075,21.67678971309215L229.7109375,5.801269202493131L230.24639423076923,6.6268131416291L230.78185096153848,17.65407549450174L231.3173076923077,27.58348620729521L231.85276442307693,53.384436555206776L232.38822115384616,32.58955575991422L232.9236778846154,27.767529198899865L233.4591346153846,29.804129276890308L233.99459134615384,44.434321210719645L234.53004807692307,21.7823224584572L235.06550480769232,25.170574760995805L235.60096153846155,30.29469968052581L236.13641826923077,31.22804361861199L236.671875,20.790293561294675L237.20733173076923,25.847560863476247L237.74278846153845,20.939141395501792L238.27824519230768,38.50843215128407L238.8137019230769,16.53439494781196L239.34915865384616,29.177708202041686L239.8846153846154,19.210993258748204L240.4200721153846,35.295839274767786L240.95552884615387,20.23318190127611L241.4909855769231,10.133648079354316L242.02644230769232,26.508201649412513L242.56189903846155,5.375289162620902L243.09735576923077,25.32248075120151L243.6328125,19.21713593415916L244.16826923076923,32.9954205150716L244.70372596153845,9.559031112585217L245.23918269230768,20.551019217818975L245.7746394230769,31.99788166442886L246.31009615384613,25.56064783129841L246.8455528846154,15.644128827843815L247.3810096153846,25.28348926221952L247.91646634615384,36.225993239786476L248.4519230769231,26.690715563017875L248.98737980769232,26.566306613385677L249.52283653846155,43.04025025339797L250.05829326923077,32.946410928852856L250.59375,23.81966071203351L251.12920673076923,15.920654674991965L251.66466346153845,25.96535259624943L252.20012019230768,9.899224604014307L252.73557692307693,12.380100931040943L253.27103365384616,15.592430173419416L253.8064903846154,10.12152090901509L254.3419471153846,24.284447696991265L254.87740384615384,45.013789045624435L255.41286057692307,4.084351880010217L255.9483173076923,24.861885549034923L256.48377403846155,22.07181910518557L257.0192307692308,19.352011159062386L257.5546875,15.592377446591854L258.0901442307692,9.54519032035023L258.62560096153845,13.511592287104577L259.1610576923077,28.94083292922005L259.6965144230769,16.642801305279136L260.23197115384613,18.462825939059258L260.76742788461536,18.7794505385682L261.30288461538464,27.940104105509818L261.83834134615387,19.266962786205113L262.3737980769231,25.025839619338512L262.9092548076923,17.021907195448875L263.44471153846155,48.81012063007802L263.6053485576923,-3.312325670849532" style="fill: none;" fill="none"></path></g></g></g></g></g></g><g transform="translate(51, 176)" clip-path="url(#clip_1)"><clipPath id="clip_1"><rect width="278" height="23"></rect></clipPath><g><g><line x1="0" y1="0" x2="0" y2="5" style="visibility: inherit;" fill="rgb(0, 0, 0)" stroke="rgb(204, 204, 204)" stroke-width="1px"></line><line x1="21.418269230769234" y1="0" x2="21.418269230769234" y2="5" style="visibility: inherit;" fill="rgb(0, 0, 0)" stroke="rgb(204, 204, 204)" stroke-width="1px"></line><line x1="42.83653846153847" y1="0" x2="42.83653846153847" y2="5" style="visibility: inherit;" fill="rgb(0, 0, 0)" stroke="rgb(204, 204, 204)" stroke-width="1px"></line><line x1="64.2548076923077" y1="0" x2="64.2548076923077" y2="5" style="visibility: inherit;" fill="rgb(0, 0, 0)" stroke="rgb(204, 204, 204)" stroke-width="1px"></line><line x1="85.67307692307693" y1="0" x2="85.67307692307693" y2="5" style="visibility: inherit;" fill="rgb(0, 0, 0)" stroke="rgb(204, 204, 204)" stroke-width="1px"></line><line x1="107.09134615384616" y1="0" x2="107.09134615384616" y2="5" style="visibility: inherit;" fill="rgb(0, 0, 0)" stroke="rgb(204, 204, 204)" stroke-width="1px"></line><line x1="128.5096153846154" y1="0" x2="128.5096153846154" y2="5" style="visibility: inherit;" fill="rgb(0, 0, 0)" stroke="rgb(204, 204, 204)" stroke-width="1px"></line><line x1="149.9278846153846" y1="0" x2="149.9278846153846" y2="5" style="visibility: inherit;" fill="rgb(0, 0, 0)" stroke="rgb(204, 204, 204)" stroke-width="1px"></line><line x1="171.34615384615387" y1="0" x2="171.34615384615387" y2="5" style="visibility: inherit;" fill="rgb(0, 0, 0)" stroke="rgb(204, 204, 204)" stroke-width="1px"></line><line x1="192.76442307692307" y1="0" x2="192.76442307692307" y2="5" style="visibility: inherit;" fill="rgb(0, 0, 0)" stroke="rgb(204, 204, 204)" stroke-width="1px"></line><line x1="214.18269230769232" y1="0" x2="214.18269230769232" y2="5" style="visibility: inherit;" fill="rgb(0, 0, 0)" stroke="rgb(204, 204, 204)" stroke-width="1px"></line><line x1="235.60096153846155" y1="0" x2="235.60096153846155" y2="5" style="visibility: inherit;" fill="rgb(0, 0, 0)" stroke="rgb(204, 204, 204)" stroke-width="1px"></line><line x1="257.0192307692308" y1="0" x2="257.0192307692308" y2="5" style="visibility: inherit;" fill="rgb(0, 0, 0)" stroke="rgb(204, 204, 204)" stroke-width="1px"></line><line x1="278.4375" y1="0" x2="278.4375" y2="5" style="visibility: inherit;" fill="rgb(0, 0, 0)" stroke="rgb(204, 204, 204)" stroke-width="1px"></line></g><g transform="translate(0, 8)"><text x="0" y="0" dx="0em" dy="0.95em" style="text-anchor: middle; visibility: hidden; font-family: Roboto, sans-serif; font-size: 12px; font-weight: 200;" fill="rgb(33, 33, 33)" stroke="none" stroke-width="1px">-2k</text><text x="21.418269230769234" y="0" dx="0em" dy="0.95em" style="text-anchor: middle; visibility: inherit; font-family: Roboto, sans-serif; font-size: 12px; font-weight: 200;" fill="rgb(33, 33, 33)" stroke="none" stroke-width="1px">0</text><text x="42.83653846153847" y="0" dx="0em" dy="0.95em" style="text-anchor: middle; visibility: hidden; font-family: Roboto, sans-serif; font-size: 12px; font-weight: 200;" fill="rgb(33, 33, 33)" stroke="none" stroke-width="1px">2k</text><text x="64.2548076923077" y="0" dx="0em" dy="0.95em" style="text-anchor: middle; visibility: inherit; font-family: Roboto, sans-serif; font-size: 12px; font-weight: 200;" fill="rgb(33, 33, 33)" stroke="none" stroke-width="1px">4k</text><text x="85.67307692307693" y="0" dx="0em" dy="0.95em" style="text-anchor: middle; visibility: hidden; font-family: Roboto, sans-serif; font-size: 12px; font-weight: 200;" fill="rgb(33, 33, 33)" stroke="none" stroke-width="1px">6k</text><text x="107.09134615384616" y="0" dx="0em" dy="0.95em" style="text-anchor: middle; visibility: inherit; font-family: Roboto, sans-serif; font-size: 12px; font-weight: 200;" fill="rgb(33, 33, 33)" stroke="none" stroke-width="1px">8k</text><text x="128.5096153846154" y="0" dx="0em" dy="0.95em" style="text-anchor: middle; visibility: hidden; font-family: Roboto, sans-serif; font-size: 12px; font-weight: 200;" fill="rgb(33, 33, 33)" stroke="none" stroke-width="1px">10k</text><text x="149.9278846153846" y="0" dx="0em" dy="0.95em" style="text-anchor: middle; visibility: inherit; font-family: Roboto, sans-serif; font-size: 12px; font-weight: 200;" fill="rgb(33, 33, 33)" stroke="none" stroke-width="1px">12k</text><text x="171.34615384615387" y="0" dx="0em" dy="0.95em" style="text-anchor: middle; visibility: hidden; font-family: Roboto, sans-serif; font-size: 12px; font-weight: 200;" fill="rgb(33, 33, 33)" stroke="none" stroke-width="1px">14k</text><text x="192.76442307692307" y="0" dx="0em" dy="0.95em" style="text-anchor: middle; visibility: inherit; font-family: Roboto, sans-serif; font-size: 12px; font-weight: 200;" fill="rgb(33, 33, 33)" stroke="none" stroke-width="1px">16k</text><text x="214.18269230769232" y="0" dx="0em" dy="0.95em" style="text-anchor: middle; visibility: hidden; font-family: Roboto, sans-serif; font-size: 12px; font-weight: 200;" fill="rgb(33, 33, 33)" stroke="none" stroke-width="1px">18k</text><text x="235.60096153846155" y="0" dx="0em" dy="0.95em" style="text-anchor: middle; visibility: inherit; font-family: Roboto, sans-serif; font-size: 12px; font-weight: 200;" fill="rgb(33, 33, 33)" stroke="none" stroke-width="1px">20k</text><text x="257.0192307692308" y="0" dx="0em" dy="0.95em" style="text-anchor: middle; visibility: hidden; font-family: Roboto, sans-serif; font-size: 12px; font-weight: 200;" fill="rgb(33, 33, 33)" stroke="none" stroke-width="1px">22k</text><text x="278.4375" y="0" dx="0em" dy="0.95em" style="text-anchor: middle; visibility: hidden; font-family: Roboto, sans-serif; font-size: 12px; font-weight: 200;" fill="rgb(33, 33, 33)" stroke="none" stroke-width="1px">24k</text></g><line x1="0" y1="0" x2="278.4375" y2="0" fill="rgb(0, 0, 0)" stroke="rgb(204, 204, 204)" stroke-width="1px"></line></g></g></g></g></svg>