<svg viewBox="0 0 330 200" xmlns="http://www.w3.org/2000/svg"><g><g><g><g><g><line x1="20.390625" y1="174.14769006590114" x2="15.390625" y2="174.14769006590114" style="visibility: inherit;" fill="rgb(0, 0, 0)" stroke="rgb(204, 204, 204)" stroke-width="1px"></line><line x1="20.390625" y1="72.20483203471828" x2="15.390625" y2="72.20483203471828" style="visibility: inherit;" fill="rgb(0, 0, 0)" stroke="rgb(204, 204, 204)" stroke-width="1px"></line><line x1="20.390625" y1="12.572082870135734" x2="15.390625" y2="12.572082870135734" style="visibility: inherit;" fill="rgb(0, 0, 0)" stroke="rgb(204, 204, 204)" stroke-width="1px"></line></g><g transform="translate(10.390625, 0)"><text x="0" y="174.14769006590114" dx="0em" dy="0.3em" style="text-anchor: end; visibility: hidden; font-family: Roboto, sans-serif; font-size: 12px; font-weight: 200;" fill="rgb(33, 33, 33)" stroke="none" stroke-width="1px">1</text><text x="0" y="72.20483203471828" dx="0em" dy="0.3em" style="text-anchor: end; visibility: inherit; font-family: Roboto, sans-serif; font-size: 12px; font-weight: 200;" fill="rgb(33, 33, 33)" stroke="none" stroke-width="1px">2</text><text x="0" y="12.572082870135734" dx="0em" dy="0.3em" style="text-anchor: end; visibility: inherit; font-family: Roboto, sans-serif; font-size: 12px; font-weight: 200;" fill="rgb(33, 33, 33)" stroke="none" stroke-width="1px">3</text></g><line x1="20.390625" y1="0" x2="20.390625" y2="176.921875" fill="rgb(0, 0, 0)" stroke="rgb(204, 204, 204)" stroke-width="1px"></line></g></g><g transform="translate(20, 0)" clip-path="url(#clip_0)"><clipPath id="clip_0"><rect width="309" height="176"></rect></clipPath><g><g><g><line x1="0" y1="0" x2="0" y2="176.921875" fill="rgb(0, 0, 0)" stroke="rgb(66, 66, 66)" stroke-width="1px" opacity="0.25"></line><line x1="23.81610576923077" y1="0" x2="23.81610576923077" y2="176.921875" fill="rgb(0, 0, 0)" stroke="rgb(66, 66, 66)" stroke-width="1px" opacity="0.25"></line><line x1="47.63221153846154" y1="0" x2="47.63221153846154" y2="176.921875" fill="rgb(0, 0, 0)" stroke="rgb(66, 66, 66)" stroke-width="1px" opacity="0.25"></line><line x1="71.4483173076923" y1="0" x2="71.4483173076923" y2="176.921875" fill="rgb(0, 0, 0)" stroke="rgb(66, 66, 66)" stroke-width="1px" opacity="0.25"></line><line x1="95.26442307692308" y1="0" x2="95.26442307692308" y2="176.921875" fill="rgb(0, 0, 0)" stroke="rgb(66, 66, 66)" stroke-width="1px" opacity="0.25"></line><line x1="119.08052884615385" y1="0" x2="119.08052884615385" y2="176.921875" fill="rgb(0, 0, 0)" stroke="rgb(66, 66, 66)" stroke-width="1px" opacity="0.25"></line><line x1="142.8966346153846" y1="0" x2="142.8966346153846" y2="176.921875" fill="rgb(0, 0, 0)" stroke="rgb(66, 66, 66)" stroke-width="1px" opacity="0.25"></line><line x1="166.7127403846154" y1="0" x2="166.7127403846154" y2="176.921875" fill="rgb(0, 0, 0)" stroke="rgb(66, 66, 66)" stroke-width="1px" opacity="0.25"></line><line x1="190.52884615384616" y1="0" x2="190.52884615384616" y2="176.921875" fill="rgb(0, 0, 0)" stroke="rgb(66, 66, 66)" stroke-width="1px" opacity="0.25"></line><line x1="214.3449519230769" y1="0" x2="214.3449519230769" y2="176.921875" fill="rgb(0, 0, 0)" stroke="rgb(66, 66, 66)" stroke-width="1px" opacity="0.25"></line><line x1="238.1610576923077" y1="0" x2="238.1610576923077" y2="176.921875" fill="rgb(0, 0, 0)" stroke="rgb(66, 66, 66)" stroke-width="1px" opacity="0.25"></line><line x1="261.97716346153845" y1="0" x2="261.97716346153845" y2="176.921875" fill="rgb(0, 0, 0)" stroke="rgb(66, 66, 66)" stroke-width="1px" opacity="0.25"></line><line x1="285.7932692307692" y1="0" x2="285.7932692307692" y2="176.921875" fill="rgb(0, 0, 0)" stroke="rgb(66, 66, 66)" stroke-width="1px" opacity="0.25"></line><line x1="309.609375" y1="0" x2="309.609375" y2="176.921875" fill="rgb(0, 0, 0)" stroke="rgb(66, 66, 66)" stroke-width="1px" opacity="0.25"></line></g><g><line x1="0" y1="174.14769006590114" x2="309.609375" y2="174.14769006590114" fill="rgb(0, 0, 0)" stroke="rgb(66, 66, 66)" stroke-width="1px" opacity="0.25"></line><line x1="0" y1="72.20483203471828" x2="309.609375" y2="72.20483203471828" fill="rgb(0, 0, 0)" stroke="rgb(66, 66, 66)" stroke-width="1px" opacity="0.25"></line><line x1="0" y1="12.572082870135734" x2="309.609375" y2="12.572082870135734" fill="rgb(0, 0, 0)" stroke="rgb(66, 66, 66)" stroke-width="1px" opacity="0.25"></line></g></g></g><g><g><line x1="23.81610576923077" y1="0" x2="23.81610576923077" y2="176.921875" fill="rgb(0, 0, 0)" stroke="rgb(153, 153, 153)" stroke-width="1.5px"></line></g></g><g><g><g><g><g><path stroke="rgb(255, 112, 67)" stroke-width="2px" d="M30.9609375,-0.6130035650470864L31.55634014423077,1.1618884255885733L32.15174278846154,5.101272437515171L32.74714543269231,7.925722140702815L33.34254807692308,8.796496628830782L33.93795072115385,12.138813008767857L34.53335336538462,13.81540048184653L35.12875600961539,15.96636775588485L35.72415865384615,17.13462815015945L36.31956129807692,20.145306903016554L36.91496394230769,22.597372608302102L37.51036658653846,23.228861740273327L38.10576923076923,25.274553571428598L38.701171875,27.03425478844984L39.29657451923077,29.06722317621986L39.89197716346153,30.028896147453406L40.48737980769231,29.831336978592898L41.08278245192308,29.445152334475523L41.67818509615385,33.19830031950115L42.27358774038461,33.03897061243875L42.86899038461539,35.47499720845977L43.46439302884615,35.03954884267032L44.05979567307692,34.83281223042689L44.655198317307686,34.24396580592549L45.25060096153847,35.29783752331475L45.84600360576923,34.31031055165177L46.44140625,35.85790637626079L47.03680889423077,36.2055342694428L47.63221153846154,38.201622861443525L48.22761418269231,38.24424825178165L48.82301682692307,38.12281104902063L49.41841947115384,38.27476254160157L50.01382211538462,36.69670274790786L50.60922475961539,38.6192381432896L51.20462740384615,37.9502311442807L51.80003004807692,39.20482129107035L52.39543269230769,41.0950390786755L52.99083533653846,43.460610933420554L53.586237980769226,42.95643502615151L54.181640625,42.416828667356775L54.777043269230774,45.97364222712304L55.37244591346154,48.03571908959985L55.96784855769231,49.0649088302137L56.56325120192307,49.21614211057899L57.15865384615385,47.82042928044294L57.75405649038461,48.714117478548296L58.34945913461539,47.69753984175907L58.94486177884615,45.537433274478225L59.54026442307693,45.97839207325323L60.13566706730769,48.41485310495062L60.73106971153846,48.67982424424838L61.326472355769226,50.4190979327656L61.921875,50.93504967767974L62.517277644230774,49.270869682688904L63.11268028846154,49.99212462141752L63.70808293269231,51.27538233015372L64.30348557692308,50.988997589341984L64.89888822115385,50.718836676968685L65.49429086538461,50.87202483206994L66.08969350961539,50.61400365769487L66.68509615384616,52.685694631881304L67.28049879807692,52.84256239324107L67.8759014423077,51.698471897273365L68.47130408653845,54.030779747798974L69.06670673076924,53.843922879379534L69.662109375,54.851271822782586L70.25751201923077,55.35757806299964L70.85291466346153,55.36449240426935L71.4483173076923,54.694417201992195L72.04371995192308,56.298122320567224L72.63912259615384,57.20192799029505L73.23452524038461,57.530887530577445L73.82992788461539,59.05241033379155L74.42533052884616,58.42571447736008L75.02073317307692,58.90973125825143L75.6161358173077,58.03906235650359L76.21153846153847,58.02164218530211L76.80694110576923,59.37958172871905L77.40234375,61.95449982628337L77.99774639423077,62.56986942327156L78.59314903846153,64.05134295649478L79.1885516826923,63.36886788789224L79.78395432692307,62.16087022121466L80.37935697115385,62.366780622862L80.97475961538461,63.73563142808705L81.57016225961539,61.072109396161075L82.16556490384616,63.60647313837064L82.76096754807692,63.18605967877612L83.3563701923077,62.824549416110266L83.95177283653845,62.6415647405161L84.54717548076923,64.23474192788184L85.142578125,64.99496930706438L85.73798076923077,64.89435401349455L86.33338341346155,65.0922025628827L86.9287860576923,67.22316212288959L87.52418870192308,69.88629452409441L88.11959134615384,66.93471391742219L88.71499399038461,66.83602188734748L89.31039663461537,67.61319293326218L89.90579927884616,69.3525335779784L90.50120192307693,69.707193066926L91.0966045673077,69.42539613850597L91.69200721153847,69.60834661389083L92.28740985576923,70.34719460338572L92.8828125,70.72775024681222L93.47821514423076,70.92112489180658L94.07361778846153,69.47804761870654L94.66902043269232,70.66467054602558L95.26442307692308,72.87920626873765L95.85982572115385,72.10176663017477L96.45522836538461,70.29300076893172L97.05063100961539,68.17842454752252L97.64603365384615,68.97879402342247L98.24143629807692,69.26579587436306L98.83683894230768,70.2595000385303L99.43224158653847,73.61219837595296L100.02764423076924,75.70405075150745L100.623046875,75.76341582030372L101.21844951923077,78.65554394210041L101.81385216346153,80.54484038667688L102.4092548076923,81.89736196865282L103.00465745192307,81.39721854427553L103.60006009615384,78.99799836886747L104.19546274038463,78.41744794914288L104.79086538461539,79.34783607092709L105.38626802884616,79.56051564380728L105.98167067307692,79.82776409888082L106.5770733173077,78.91027157228659L107.17247596153845,77.9402147714788L107.76787860576923,79.02167861161206L108.36328125,79.31319665079111L108.95868389423077,80.90766456453683L109.55408653846155,80.61940760977026L110.1494891826923,79.43809941255888L110.74489182692308,80.61042273607963L111.34029447115384,82.25372026117326L111.93569711538461,82.53605868644601L112.53109975961539,81.64750157017384L113.12650240384615,83.47304854208052L113.72190504807693,85.7115609697181L114.3173076923077,84.72144654484957L114.91271033653847,83.55728158484897L115.50811298076923,83.31275880373224L116.103515625,81.19141370081446L116.69891826923077,82.88368696175417L117.29432091346153,83.31524228101034L117.8897235576923,83.93652471877984L118.48512620192307,85.79533105787904L119.08052884615385,85.88143697593392L119.67593149038461,86.44445916362756L120.27133413461539,88.41910132062418L120.86673677884616,87.51454876470288L121.46213942307692,89.46602964874758L122.0575420673077,91.14043106725688L122.65294471153845,89.92941316161358L123.24834735576923,91.05369216592922L123.84375,93.10124062673259L124.43915264423077,89.88767214890827L125.03455528846155,91.74567995994504L125.6299579326923,92.25187863202703L126.22536057692308,90.31170762986893L126.82076322115384,89.65478604297468L127.41616586538461,89.02140899375146L128.0115685096154,90.41011240577075L128.60697115384616,90.61542449828269L129.20237379807693,93.14219353421228L129.7977764423077,93.87451204438844L130.39317908653845,94.23489040334465L130.98858173076923,95.5796336137428L131.583984375,96.29118647633823L132.17938701923077,95.82984622951749L132.77478966346152,93.92596751144117L133.37019230769232,94.4034886656555L133.9655949519231,92.6962672125143L134.56099759615384,95.09634929649084L135.1564002403846,99.3701119810553L135.7518028846154,98.2316865309275L136.34720552884616,96.08543405043532L136.9426081730769,96.20177287366916L137.53801081730768,95.99057376315041L138.13341346153848,95.51558692719682L138.72881610576923,96.62371266867804L139.32421875,96.49966168664437L139.91962139423077,100.36240370248895L140.51502403846155,98.62148371004905L141.1104266826923,101.69373973871369L141.70582932692307,101.39650209959416L142.30123197115384,100.46491606932516L142.8966346153846,98.45202711404892L143.4920372596154,98.4622921243217L144.08743990384616,99.82614606434873L144.68284254807693,102.99972432531479L145.27824519230768,102.58091965348004L145.87364783653845,102.04176638355347L146.46905048076923,101.66422198020106L147.064453125,102.42611472327962L147.65985576923077,102.6050923201764L148.25525841346155,104.85451096772641L148.85066105769232,103.98952661962683L149.44606370192307,104.26364311685722L150.04146634615384,104.65471251547456L150.6368689903846,102.82962768255003L151.2322716346154,104.36232606733007L151.82767427884616,100.50876194302424L152.42307692307693,104.01060661319228L153.0184795673077,103.70895049096461L153.61388221153845,101.76560131527346L154.20928485576923,100.794678379738L154.8046875,103.06044654892094L155.40009014423077,105.20556922663552L155.99549278846155,105.99301773650947L156.5908954326923,105.47458855364334L157.18629807692307,106.53414822333751L157.78170072115384,108.08607858319763L158.3771033653846,104.51416708716921L158.97250600961536,108.40805623868698L159.56790865384613,106.21132875770049L160.16331129807693,105.71410874296396L160.7587139423077,105.8955584413099L161.35411658653848,105.69029070634707L161.94951923076923,107.4862094402408L162.544921875,108.31718319586919L163.14032451923077,108.49662507577082L163.73572716346155,110.03198635518754L164.33112980769232,110.09674504978385L164.92653245192307,112.86601045137914L165.52193509615384,113.70205176760933L166.1173377403846,115.62126291022541L166.7127403846154,112.82258017812609L167.30814302884613,112.82034321526258L167.9035456730769,114.74857727565634L168.49894831730768,114.71486241629229L169.09435096153845,113.87748189815258L169.68975360576925,112.29162200687189L170.28515625,110.50262937621396L170.88055889423077,107.2761821943468L171.47596153846155,107.45610710571931L172.07136418269232,109.71931718534321L172.6667668269231,110.39761190850221L173.26216947115384,109.12396623226937L173.8575721153846,109.53475204803992L174.4529747596154,109.82535138827022L175.04837740384616,111.65442866561294L175.6437800480769,111.57448529609228L176.23918269230768,112.48262835398243L176.83458533653845,111.46927957050323L177.42998798076923,111.99770167233122L178.025390625,110.65199619112308L178.62079326923075,110.6192267171245L179.21619591346155,110.45961191076852L179.81159855769232,110.43657301326259L180.4070012019231,112.71017640417561L181.00240384615387,115.81125137651249L181.5978064903846,113.1191645197811L182.1932091346154,114.8131823199528L182.78861177884616,115.39241980535833L183.38401442307693,117.51487360315846L183.97941706730768,117.99305120554206L184.57481971153845,119.4453854981683L185.17022235576923,120.26317918404783L185.765625,117.6273294727357L186.36102764423077,118.88004614884451L186.95643028846152,118.57263042360209L187.5518329326923,117.18194679523853L188.14723557692307,114.47470539429621L188.74263822115387,114.77601093539873L189.33804086538464,115.44100938448936L189.9334435096154,113.17741850821788L190.52884615384616,114.02316231206063L191.12424879807693,115.43958316164509L191.7196514423077,113.60008392894548L192.31505408653845,117.38414891342563L192.91045673076923,118.59869398981263L193.505859375,116.79545673762412L194.10126201923077,119.98651193023399L194.69666466346155,121.3176858145664L195.2920673076923,121.86936942345179L195.88746995192307,122.4237756238106L196.48287259615384,125.30045276008481L197.0782752403846,127.18453666944825L197.67367788461536,127.33434600143607L198.26908052884613,125.46796089230223L198.86448317307693,127.07048796378376L199.4598858173077,124.66680126996845L200.05528846153848,124.3128011794283L200.65069110576923,122.76512032815621L201.24609375,125.65386493362116L201.84149639423077,126.05734251099985L202.43689903846155,126.90988906616849L203.03230168269232,126.0283521535982L203.62770432692307,128.79133738011515L204.22310697115384,127.16099068500485L204.8185096153846,127.51246597370447L205.4139122596154,127.51823330608538L206.00931490384613,128.1003555617172L206.6047175480769,125.60993354049066L207.20012019230768,127.92573924954101L207.79552283653845,128.14163815517645L208.39092548076925,128.5497929156018L208.986328125,128.2542094414711L209.58173076923077,128.0628329399069L210.17713341346155,129.19176494116718L210.77253605769232,129.24784931462116L211.3679387019231,132.413248400731L211.96334134615384,131.79741028374633L212.5587439903846,131.77189386282086L213.1541466346154,132.86435633971624L213.74954927884616,132.82875375011196L214.3449519230769,132.67268001801486L214.94035456730768,132.0768888107788L215.53575721153845,130.74605224565207L216.13115985576923,131.98451706758888L216.7265625,129.40391423715283L217.32196514423075,129.799713212741L217.91736778846155,131.1618719340995L218.51277043269232,129.66354056208837L219.1081730769231,129.047738293361L219.70357572115387,129.14718865100377L220.2989783653846,130.29983301009614L220.8943810096154,130.96137110130482L221.48978365384616,130.42502480134044L222.08518629807693,128.32739677106096L222.68058894230768,130.15919480507088L223.27599158653845,132.22558172017634L223.87139423076923,132.300790842001L224.466796875,131.44954206429617L225.06219951923077,134.9108559021643L225.65760216346152,136.46265746182684L226.2530048076923,136.90573888855593L226.84840745192307,135.65397932229607L227.44381009615387,133.78089788021774L228.03921274038464,137.12404804673017L228.6346153846154,139.07560782200972L229.23001802884616,137.74722591421633L229.82542067307693,137.71539191436085L230.4208233173077,136.82207935175649L231.01622596153845,137.75894272156052L231.61162860576923,136.08062820943036L232.20703125,135.42300402172728L232.80243389423077,137.85097081690586L233.39783653846155,136.15847019304292L233.9932391826923,137.16334031857326L234.58864182692307,138.532481161895L235.18404447115384,140.19518527872754L235.7794471153846,140.9402405049036L236.37484975961536,142.6268808235661L236.97025240384613,141.91804775047407L237.56565504807693,143.26141557831082L238.1610576923077,142.42949581910545L238.75646033653848,141.63528911147128L239.35186298076923,139.51082983857629L239.947265625,138.18706804435456L240.54266826923077,137.54984566957273L241.13807091346155,135.55291149482917L241.73347355769232,137.90433036072577L242.32887620192307,139.0534884786612L242.92427884615384,139.12985773160307L243.5196814903846,139.170696299167L244.1150841346154,139.43269100091192L244.71048677884613,140.6513380792164L245.3058894230769,141.4511472007125L245.90129206730768,141.40580279864173L246.49669471153845,141.19134573926314L247.09209735576925,141.6706875795505L247.6875,143.04705344207048L248.28290264423077,140.94064710217785L248.87830528846155,142.63114207681028L249.47370793269232,142.14006148594723L250.0691105769231,142.57267791178717L250.66451322115384,140.10850766436843L251.2599158653846,141.8597559674883L251.8553185096154,143.49572411751524L252.45072115384616,144.03106622911582L253.0461237980769,145.51257231418666L253.64152644230768,145.7313940642228L254.23692908653845,145.50435280073845L254.83233173076923,146.95177800487534L255.427734375,148.13884996340718L256.0231370192308,149.92980045242635L256.61853966346155,150.7036771464754L257.2139423076923,150.14426262143823L257.8093449519231,146.9226246944385L258.40474759615387,146.40033866775644L259.00015024038464,145.92558169240556L259.5955528846154,143.9981822996885L260.19095552884613,139.65104994715026L260.7863581730769,141.13343239124995L261.3817608173077,141.5385496720503L261.97716346153845,141.25932604486331L262.5725661057692,140.47546361779456L263.16796875,141.40250001895518L263.7633713942308,141.77548999264607L264.35877403846155,143.78537828228443L264.9541766826923,140.50001752195763L265.54957932692304,142.95799276138192L266.14498197115387,144.04427498453663L266.74038461538464,146.7150503301859L267.3357872596154,145.12583320501173L267.9311899038462,146.09813500042014L268.5265925480769,148.56766096933328L269.1219951923077,148.2553694032005L269.71739783653845,150.895886296677L270.3128004807692,149.7459798147803L270.908203125,150.64240472640455L271.5036057692308,149.80715548067428L272.09900841346155,153.15358796110388L272.6944110576923,152.8034476011602L273.2898137019231,149.3555691450132L273.8852163461538,151.72437146861088L274.4806189903846,151.64732142857142L275.07602163461536,152.86036363668492L275.67142427884613,150.60461457450756L276.26682692307696,151.00842901115797L276.8622295673077,150.78435032886517L277.45763221153845,149.2289190363649L278.0530348557692,148.67139156790512L278.6484375,147.9513718888032L279.2438401442308,150.14806306428926L279.83924278846155,148.49088144094503L280.4346454326923,150.57005637277135L281.0300480769231,152.88443193333293L281.62545072115387,154.5327191437956L282.2208533653846,157.4642496668335L282.81625600961536,158.58250954858698L283.41165865384613,155.92457316556585L284.0070612980769,158.27384695188925L284.6024639423077,157.58213274259666L285.19786658653845,156.37128788782098L285.7932692307692,153.9395187734071L286.388671875,155.9111002654142L286.9840745192308,157.07139513599122L287.57947716346155,157.903819192904L288.1748798076923,156.1494261903969L288.7702824519231,156.67383939469946L289.36568509615387,156.30920104417058L289.96108774038464,156.87243510968221L290.55649038461536,156.3820953663931L291.15189302884613,155.9782004168421L291.7472956730769,153.89333187518622L292.3426983173077,150.78120188198352L292.93810096153845,150.08712867417663" style="fill: none;" fill="none"></path></g></g></g></g><g opacity="0.2"><g><g><g><path stroke="rgb(255, 112, 67)" stroke-width="2px" d="M27.388521634615387,-8.204554913252684L27.983924278846153,3.107825132772606L28.579326923076923,-7.906295196882226L29.174729567307693,4.586234341812763L29.770132211538463,3.674331233972246L30.36553485576923,12.523070439150283L30.9609375,16.250389843550273L31.55634014423077,9.38595559002965L32.15174278846154,24.60625880058784L32.74714543269231,21.839229801373175L33.34254807692308,12.9795504946219L33.93795072115385,29.249021683453364L34.53335336538462,22.18424471211127L35.12875600961539,26.901222692726105L35.72415865384615,22.99242013962838L36.31956129807692,35.9387378868705L36.91496394230769,35.36519927889867L37.51036658653846,26.404879186971783L38.10576923076923,35.91000982907604L38.701171875,36.151516565416074L39.29657451923077,39.68689691337758L39.89197716346153,34.947915612116226L40.48737980769231,28.843241841829652L41.08278245192308,27.518582660931386L41.67818509615385,53.69732982302149L42.27358774038461,32.23888713982994L42.86899038461539,48.41164138512428L43.46439302884615,32.86223413282186L44.05979567307692,33.79373638235545L44.655198317307686,31.30601116207023L45.25060096153847,40.739959902552414L45.84600360576923,29.41935163431151L46.44140625,43.939069050464624L47.03680889423077,37.97556977669913L47.63221153846154,48.73100422205162L48.22761418269231,38.45998898205199L48.82301682692307,37.51017462884876L49.41841947115384,39.045748539384086L50.01382211538462,28.96376854711566L50.60922475961539,48.74982243666635L51.20462740384615,34.61153366323686L51.80003004807692,45.721644053558606L52.39543269230769,51.04984097514767L52.99083533653846,56.05033111559957L53.586237980769226,40.43153599171287L54.181640625,39.716372350043194L54.777043269230774,65.42186482813425L55.37244591346154,58.937968209017406L55.96784855769231,54.38624628442258L56.56325120192307,49.98382265868955L57.15865384615385,40.95385058557075L57.75405649038461,53.32173120322142L58.34945913461539,42.658282314185215L58.94486177884615,35.06783206419516L59.54026442307693,48.23035930745921L60.13566706730769,61.40437124862389L60.73106971153846,50.02808616257996L61.326472355769226,59.55071423852046L61.921875,53.57417070298831L62.517277644230774,41.12639092921574L63.11268028846154,53.69732982302149L63.70808293269231,57.9468671928376L64.30348557692308,49.548215906306844L64.89888822115385,49.359224003441035L65.49429086538461,51.649703000334945L66.08969350961539,49.31516131579454L66.68509615384616,63.64201898792402L67.28049879807692,53.63898250287949L67.8759014423077,46.041361332457356L68.47130408653845,66.43655083014791L69.06670673076924,52.90193869853377L69.662109375,60.057635227873355L70.25751201923077,57.9468671928376L70.85291466346153,55.399488120135345L71.4483173076923,51.34947376426045L72.04371995192308,64.69336175254703L72.63912259615384,61.86289570147001L73.23452524038461,59.206999431341416L73.82992788461539,67.00329744281753L74.42533052884616,55.294570414906524L75.02073317307692,61.38387856492875L75.6161358173077,53.710300756151234L76.21153846153847,57.93351720286445L76.80694110576923,66.45069543974674L77.40234375,75.72488487244115L77.99774639423077,65.72412029499883L78.59314903846153,71.78626353357659L79.1885516826923,59.96287681692737L79.78395432692307,56.19534612872694L80.37935697115385,63.413256015165004L80.97475961538461,70.86523428791281L81.57016225961539,48.28659946442229L82.16556490384616,77.14771546676008L82.76096754807692,61.07674919054885L83.3563701923077,61.00859245214471L83.95177283653845,61.71902667199448L84.54717548076923,72.57297319139619L85.142578125,68.90362280633923L85.73798076923077,64.38623254965098L86.33338341346155,66.09753812255404L86.9287860576923,78.50766583030781L87.52418870192308,84.15657303137777L88.11959134615384,52.84390601611636L88.71499399038461,66.33759348118326L89.31039663461537,71.61038911741868L89.90579927884616,78.48464611672202L90.50120192307693,71.51521882137126L91.0966045673077,68.0075545388174L91.69200721153847,70.53769306578019L92.28740985576923,74.14421624032583L92.8828125,72.66883944331343L93.47821514423076,71.90363592798228L94.07361778846153,62.38475107318209L94.66902043269232,76.82106503527201L95.26442307692308,84.62791360241965L95.85982572115385,68.22926421593309L96.45522836538461,61.46588273549742L97.05063100961539,57.92016842458017L97.64603365384615,73.09732152445135L98.24143629807692,70.7268505047651L98.83683894230768,75.39385962421515L99.43224158653847,91.86043389648164L100.02764423076924,86.77193561099696L100.623046875,76.06420706571835L101.21844951923077,94.23289484425673L101.81385216346153,90.49673738426769L102.4092548076923,88.93944454104913L103.00465745192307,78.89194780415677L103.60006009615384,67.4226925078392L104.19546274038463,75.51414788431066L104.79086538461539,84.1485957617672L105.38626802884616,80.64154499582541L105.98167067307692,81.18770090571928L106.5770733173077,74.35299800889757L107.17247596153845,73.12692294567383L107.76787860576923,84.61992026512078L108.36328125,80.79738136872606L108.95868389423077,89.25288430027318L109.55408653846155,79.16925424408316L110.1494891826923,73.60127811059984L110.74489182692308,86.69077119895849L111.34029447115384,90.86360699908835L111.93569711538461,83.97323370144554L112.53109975961539,77.2313896510805L113.12650240384615,93.07577662762546L113.72190504807693,97.59376084258376L114.3173076923077,79.81060398312891L114.91271033653847,77.8032009082141L115.50811298076923,82.08152159211211L116.103515625,70.90167089536858L116.69891826923077,91.75960054019932L117.29432091346153,85.51880674135428L117.8897235576923,87.12147911523796L118.48512620192307,95.58010519297953L119.08052884615385,86.31795986653889L119.67593149038461,89.32722212281622L120.27133413461539,98.83999387425771L120.86673677884616,83.02038277847852L121.46213942307692,99.75947048295129L122.0575420673077,99.91920217645351L122.65294471153845,83.9493330011397L123.24834735576923,96.8788801113116L123.84375,103.9241755805623L124.43915264423077,74.62186922383118L125.03455528846155,101.52608020621587L125.6299579326923,94.84061426105042L126.22536057692308,80.86756489824869L126.82076322115384,86.37463025961914L127.41616586538461,85.85731062610394L128.0115685096154,97.64620383975593L128.60697115384616,91.65884627417057L129.20237379807693,106.64057059987243L129.7977764423077,97.63746030466257L130.39317908653845,96.07228933177592L130.98858173076923,102.58004778148634L131.583984375,99.94583394240142L132.17938701923077,93.5171224194209L132.77478966346152,84.65192484247088L133.37019230769232,96.84410141263028L133.9655949519231,84.34811934136897L134.56099759615384,107.88184783586242L135.1564002403846,123.13607707241589L135.7518028846154,92.60194139456482L136.34720552884616,85.6799005312366L136.9426081730769,96.7919332381893L137.53801081730768,94.92640459969398L138.13341346153848,93.13511225125441L138.72881610576923,102.36322963584033L139.32421875,95.87348810180012L139.91962139423077,121.63621964869321L140.51502403846155,90.11417506275887L141.1104266826923,118.30890569286345L141.70582932692307,99.90144328943738L142.30123197115384,95.83894631281433L142.8966346153846,88.66777587623181L143.4920372596154,98.51425028728553L144.08743990384616,106.92896067925554L144.68284254807693,120.20246036895638L145.27824519230768,100.47961198394101L145.87364783653845,99.34322806321666L146.46905048076923,99.7683410909948L147.064453125,106.34346815510983L147.65985576923077,103.51418263881928L148.25525841346155,116.79747955681277L148.85066105769232,99.68853544039986L149.44606370192307,105.65872807444278L150.04146634615384,106.64986611400771L150.6368689903846,93.9257114846594L151.2322716346154,112.37354802040134L151.82767427884616,82.42008074998249L152.42307692307693,123.13607707241589L153.0184795673077,102.19180430750883L153.61388221153845,92.30657400992894L154.20928485576923,95.97717247493762L154.8046875,115.09456907021323L155.40009014423077,116.56861703357674L155.99549278846155,110.04395191701548L156.5908954326923,102.87868615694934L157.18629807692307,112.01644528506081L157.78170072115384,116.20119459625683L158.3771033653846,87.6596111408966L158.97250600961536,129.86901337061556L159.56790865384613,95.57148362621894L160.16331129807693,103.22333383485991L160.7587139423077,106.81725263434711L161.35411658653848,104.65588234144474L161.94951923076923,116.92699072874707L162.544921875,112.5959583265912L163.14032451923077,109.40808241745307L163.73572716346155,118.05758848402021L164.33112980769232,110.42490128096436L164.92653245192307,127.74038294433522L165.52193509615384,118.00738132290445L166.1173377403846,125.73734734350896L166.7127403846154,99.42284650944266L167.30814302884613,112.80902334917359L167.9035456730769,124.91422674224933L168.49894831730768,114.54436321630459L169.09435096153845,109.71143581294119L169.68975360576925,104.51840906174475L170.28515625,101.76863066718809L170.88055889423077,91.9529143812232L171.47596153846155,108.37002710285931L172.07136418269232,121.73917312277896L172.6667668269231,113.87900323859994L173.26216947115384,102.84244870926109L173.8575721153846,111.6313565145086L174.4529747596154,111.30483054995706L175.04837740384616,121.27646733562142L175.6437800480769,111.17058843633576L176.23918269230768,117.16639655525933L176.83458533653845,106.4455335878225L177.42998798076923,114.70134660616398L178.025390625,104.02456435262684L178.62079326923075,110.4535051945908L179.21619591346155,109.6545100768082L179.81159855769232,110.32003754208131L180.4070012019231,124.78800647719059L181.00240384615387,132.59325918469222L181.5978064903846,100.20358336879885L182.1932091346154,123.69858241905999L182.78861177884616,118.35921591069294L183.38401442307693,128.75223098415086L183.97941706730768,120.43705259683655L184.57481971153845,127.02340721984531L185.17022235576923,124.47291641541749L185.765625,104.96795989004822L186.36102764423077,125.38853873170937L186.95643028846152,117.02669877293545L187.5518329326923,110.3391001816119L188.14723557692307,101.49017446121854L188.74263822115387,116.31033820123668L189.33804086538464,118.853202650861L189.9334435096154,102.22788177621693L190.52884615384616,118.37934961739775L191.12424879807693,122.82450260021415L191.7196514423077,104.6283730321801L192.31505408653845,138.18648353981126L192.91045673076923,124.903714701573L193.505859375,107.99436773216027L194.10126201923077,137.29087597152733L194.69666466346155,128.24544320165182L195.2920673076923,124.69340605265573L195.88746995192307,125.2619109218177L196.48287259615384,140.78918114149212L197.0782752403846,137.10784671724906L197.67367788461536,128.0948209918424L198.26908052884613,116.3698998530063L198.86448317307693,135.45935121371105L199.4598858173077,113.07094270584315L200.05528846153848,122.53429738120305L200.65069110576923,115.17333988203202L201.24609375,141.21180357229517L201.84149639423077,128.1163326714212L202.43689903846155,131.3017470005592L203.03230168269232,121.64651298048604L203.62770432692307,143.62988270204858L204.22310697115384,119.17671104493293L204.8185096153846,129.30414012959156L205.4139122596154,127.54742297201457L206.00931490384613,131.08210752335282L206.6047175480769,113.61565376548117L207.20012019230768,140.23925209653166L207.79552283653845,129.2391043216203L208.39092548076925,130.6328544475287L208.986328125,126.76742059275556L209.58173076923077,127.09815240040218L210.17713341346155,135.0416416819687L210.77253605769232,129.5319986743959L211.3679387019231,149.56845096899264L211.96334134615384,128.71983772120888L212.5587439903846,131.64283315339475L213.1541466346154,138.52085770613877L213.74954927884616,132.6487151171078L214.3449519230769,131.88538229702297L214.94035456730768,129.0982898350846L215.53575721153845,124.18991637198184L216.13115985576923,138.41700171626383L216.7265625,116.99677569517151L217.32196514423075,131.8191952409849L217.91736778846155,138.25559968963032L218.51277043269232,122.30667827811595L219.1081730769231,125.9703426457658L219.70357572115387,129.65150159021357L220.2989783653846,136.2756040523447L220.8943810096154,134.3555619217186L221.48978365384616,127.74038294433522L222.08518629807693,118.14801417284883L222.68058894230768,139.79611791700896L223.27599158653845,143.1526128839662L223.87139423076923,132.68198549136383L224.466796875,127.2156804547955L225.06219951923077,153.7973295297843L225.65760216346152,144.57707738721527L226.2530048076923,139.16870126805716L226.84840745192307,129.47771830844616L227.44381009615387,124.65138790026778L228.03921274038464,155.3163320326088L228.6346153846154,149.36948255698817L229.23001802884616,131.20286405990313L229.82542067307693,137.55439816411842L230.4208233173077,132.3827567339016L231.01622596153845,142.59377793166527L231.61162860576923,127.86917651584639L232.20703125,132.1393866205397L232.80243389423077,150.79303011849316L233.39783653846155,127.87991547294432L233.9932391826923,142.3566246717492L234.58864182692307,145.66363937745527L235.18404447115384,148.9104167687403L235.7794471153846,144.76966266326784L236.37484975961536,151.4721683229844L236.97025240384613,138.3823947614589L237.56565504807693,150.2544633376528L238.1610576923077,138.29016307916012L238.75646033653848,137.6806035737169L239.35186298076923,129.20660365716304L239.947265625,131.66487013570372L240.54266826923077,134.3667851205305L241.13807091346155,125.84320050954526L241.73347355769232,150.41707518597516L242.32887620192307,145.0107422418315L242.92427884615384,139.51694173609354L243.5196814903846,139.37753828036674L244.1150841346154,140.76574777916733L244.71048677884613,146.97820828822208L245.3058894230769,145.56674255857072L245.90129206730768,141.17654678802725L246.49669471153845,140.11083282315164L247.09209735576925,144.12069910055047L247.6875,150.2169561687478L248.28290264423077,130.72040557303274L248.87830528846155,151.49738636903203L249.47370793269232,139.6797347224352L250.0691105769231,144.78170941526062L250.66451322115384,128.23467752218244L251.2599158653846,151.05676856334858L251.8553185096154,152.06584806367655L252.45072115384616,146.77051391248082L253.0461237980769,153.247668870296L253.64152644230768,146.84378517954528L254.23692908653845,144.36073070001618L254.83233173076923,154.50338639744206L255.427734375,154.29763318403505L256.0231370192308,159.34344614909438L256.61853966346155,154.68365304722874L257.2139423076923,147.34546371265168L257.8093449519231,131.62081260249465L258.40474759615387,143.78532875303446L259.00015024038464,143.54624788898937L259.5955528846154,134.61387222492274L260.19095552884613,119.42993747137136L260.7863581730769,148.87325076089752L261.3817608173077,143.60597811778766L261.97716346153845,139.8543579551485L262.5725661057692,136.571473625851L263.16796875,146.1856252148804L263.7633713942308,143.6776892781341L264.35877403846155,154.40047380984979L264.9541766826923,124.91422674224933L265.54957932692304,156.06875629325938L266.14498197115387,149.66803620725582L266.74038461538464,161.02873411212357L267.3357872596154,137.33667913509632L267.9311899038462,151.11962891871968L268.5265925480769,161.7434222534728L269.1219951923077,146.68507445423307L269.71739783653845,165.03781687342317L270.3128004807692,144.06075950563437L270.908203125,155.2645892344043L271.5036057692308,145.6515346164817L272.09900841346155,171.36510324013994L272.6944110576923,151.04419671895883L273.2898137019231,133.04855001613566L273.8852163461538,164.33448085851367L274.4806189903846,151.25801934697742L275.07602163461536,159.15738021809364L275.67142427884613,139.69135780190902L276.26682692307696,153.06915267852148L276.8622295673077,149.65558250886517L277.45763221153845,141.60028541401286L278.0530348557692,145.88192708164752L278.6484375,144.36073070001618L279.2438401442308,161.7975119239971L279.83924278846155,140.37946118505445L280.4346454326923,161.56780027339258L281.0300480769231,165.18995068940188L281.62545072115387,163.16968284527002L282.2208533653846,173.26788595929955L282.81625600961536,164.37576734336503L283.41165865384613,143.16451370102362L284.0070612980769,170.77458247265142L284.6024639423077,154.13067612701403L285.19786658653845,150.39204168308035L285.7932692307692,142.21451887692274L286.388671875,166.31514312340812L286.9840745192308,163.08781182248708L287.57947716346155,162.19019343567604L288.1748798076923,147.57854184851223L288.7702824519231,159.35674784964135L289.36568509615387,154.47764766422125L289.96108774038464,159.75629572198753L290.55649038461536,153.92544330904678L291.15189302884613,153.95108557533763L291.7472956730769,143.77336333575855L292.3426983173077,135.968981490201L292.93810096153845,146.6240662583379" style="fill: none;" fill="none"></path></g></g></g></g></g></g><g transform="translate(20, 176)" clip-path="url(#clip_1)"><clipPath id="clip_1"><rect width="309" height="23"></rect></clipPath><g><g><line x1="0" y1="0" x2="0" y2="5" style="visibility: inherit;" fill="rgb(0, 0, 0)" stroke="rgb(204, 204, 204)" stroke-width="1px"></line><line x1="23.81610576923077" y1="0" x2="23.81610576923077" y2="5" style="visibility: inherit;" fill="rgb(0, 0, 0)" stroke="rgb(204, 204, 204)" stroke-width="1px"></line><line x1="47.63221153846154" y1="0" x2="47.63221153846154" y2="5" style="visibility: inherit;" fill="rgb(0, 0, 0)" stroke="rgb(204, 204, 204)" stroke-width="1px"></line><line x1="71.4483173076923" y1="0" x2="71.4483173076923" y2="5" style="visibility: inherit;" fill="rgb(0, 0, 0)" stroke="rgb(204, 204, 204)" stroke-width="1px"></line><line x1="95.26442307692308" y1="0" x2="95.26442307692308" y2="5" style="visibility: inherit;" fill="rgb(0, 0, 0)" stroke="rgb(204, 204, 204)" stroke-width="1px"></line><line x1="119.08052884615385" y1="0" x2="119.08052884615385" y2="5" style="visibility: inherit;" fill="rgb(0, 0, 0)" stroke="rgb(204, 204, 204)" stroke-width="1px"></line><line x1="142.8966346153846" y1="0" x2="142.8966346153846" y2="5" style="visibility: inherit;" fill="rgb(0, 0, 0)" stroke="rgb(204, 204, 204)" stroke-width="1px"></line><line x1="166.7127403846154" y1="0" x2="166.7127403846154" y2="5" style="visibility: inherit;" fill="rgb(0, 0, 0)" stroke="rgb(204, 204, 204)" stroke-width="1px"></line><line x1="190.52884615384616" y1="0" x2="190.52884615384616" y2="5" style="visibility: inherit;" fill="rgb(0, 0, 0)" stroke="rgb(204, 204, 204)" stroke-width="1px"></line><line x1="214.3449519230769" y1="0" x2="214.3449519230769" y2="5" style="visibility: inherit;" fill="rgb(0, 0, 0)" stroke="rgb(204, 204, 204)" stroke-width="1px"></line><line x1="238.1610576923077" y1="0" x2="238.1610576923077" y2="5" style="visibility: inherit;" fill="rgb(0, 0, 0)" stroke="rgb(204, 204, 204)" stroke-width="1px"></line><line x1="261.97716346153845" y1="0" x2="261.97716346153845" y2="5" style="visibility: inherit;" fill="rgb(0, 0, 0)" stroke="rgb(204, 204, 204)" stroke-width="1px"></line><line x1="285.7932692307692" y1="0" x2="285.7932692307692" y2="5" style="visibility: inherit;" fill="rgb(0, 0, 0)" stroke="rgb(204, 204, 204)" stroke-width="1px"></line><line x1="309.609375" y1="0" x2="309.609375" y2="5" style="visibility: inherit;" fill="rgb(0, 0, 0)" stroke="rgb(204, 204, 204)" stroke-width="1px"></line></g><g transform="translate(0, 8)"><text x="0" y="0" dx="0em" dy="0.95em" style="text-anchor: middle; visibility: hidden; font-family: Roboto, sans-serif; font-size: 12px; font-weight: 200;" fill="rgb(33, 33, 33)" stroke="none" stroke-width="1px">-2k</text><text x="23.81610576923077" y="0" dx="0em" dy="0.95em" style="text-anchor: middle; visibility: inherit; font-family: Roboto, sans-serif; font-size: 12px; font-weight: 200;" fill="rgb(33, 33, 33)" stroke="none" stroke-width="1px">0</text><text x="47.63221153846154" y="0" dx="0em" dy="0.95em" style="text-anchor: middle; visibility: hidden; font-family: Roboto, sans-serif; font-size: 12px; font-weight: 200;" fill="rgb(33, 33, 33)" stroke="none" stroke-width="1px">2k</text><text x="71.4483173076923" y="0" dx="0em" dy="0.95em" style="text-anchor: middle; visibility: inherit; font-family: Roboto, sans-serif; font-size: 12px; font-weight: 200;" fill="rgb(33, 33, 33)" stroke="none" stroke-width="1px">4k</text><text x="95.26442307692308" y="0" dx="0em" dy="0.95em" style="text-anchor: middle; visibility: hidden; font-family: Roboto, sans-serif; font-size: 12px; font-weight: 200;" fill="rgb(33, 33, 33)" stroke="none" stroke-width="1px">6k</text><text x="119.08052884615385" y="0" dx="0em" dy="0.95em" style="text-anchor: middle; visibility: inherit; font-family: Roboto, sans-serif; font-size: 12px; font-weight: 200;" fill="rgb(33, 33, 33)" stroke="none" stroke-width="1px">8k</text><text x="142.8966346153846" y="0" dx="0em" dy="0.95em" style="text-anchor: middle; visibility: hidden; font-family: Roboto, sans-serif; font-size: 12px; font-weight: 200;" fill="rgb(33, 33, 33)" stroke="none" stroke-width="1px">10k</text><text x="166.7127403846154" y="0" dx="0em" dy="0.95em" style="text-anchor: middle; visibility: inherit; font-family: Roboto, sans-serif; font-size: 12px; font-weight: 200;" fill="rgb(33, 33, 33)" stroke="none" stroke-width="1px">12k</text><text x="190.52884615384616" y="0" dx="0em" dy="0.95em" style="text-anchor: middle; visibility: hidden; font-family: Roboto, sans-serif; font-size: 12px; font-weight: 200;" fill="rgb(33, 33, 33)" stroke="none" stroke-width="1px">14k</text><text x="214.3449519230769" y="0" dx="0em" dy="0.95em" style="text-anchor: middle; visibility: inherit; font-family: Roboto, sans-serif; font-size: 12px; font-weight: 200;" fill="rgb(33, 33, 33)" stroke="none" stroke-width="1px">16k</text><text x="238.1610576923077" y="0" dx="0em" dy="0.95em" style="text-anchor: middle; visibility: hidden; font-family: Roboto, sans-serif; font-size: 12px; font-weight: 200;" fill="rgb(33, 33, 33)" stroke="none" stroke-width="1px">18k</text><text x="261.97716346153845" y="0" dx="0em" dy="0.95em" style="text-anchor: middle; visibility: inherit; font-family: Roboto, sans-serif; font-size: 12px; font-weight: 200;" fill="rgb(33, 33, 33)" stroke="none" stroke-width="1px">20k</text><text x="285.7932692307692" y="0" dx="0em" dy="0.95em" style="text-anchor: middle; visibility: hidden; font-family: Roboto, sans-serif; font-size: 12px; font-weight: 200;" fill="rgb(33, 33, 33)" stroke="none" stroke-width="1px">22k</text><text x="309.609375" y="0" dx="0em" dy="0.95em" style="text-anchor: middle; visibility: hidden; font-family: Roboto, sans-serif; font-size: 12px; font-weight: 200;" fill="rgb(33, 33, 33)" stroke="none" stroke-width="1px">24k</text></g><line x1="0" y1="0" x2="309.609375" y2="0" fill="rgb(0, 0, 0)" stroke="rgb(204, 204, 204)" stroke-width="1px"></line></g></g></g></g></svg>